<svg width="151" height="45" viewBox="0 0 151 45" fill="none" xmlns="http://www.w3.org/2000/svg">
<path d="M16.1872 29.9641C14.6418 26.3581 13.7832 22.5803 13.7832 18.6309C13.7832 14.6815 14.556 10.9039 16.1872 7.29784C18.1619 2.83328 22.4548 0 27.4345 0C32.4142 0 36.7071 2.83328 38.6818 7.29784C40.2272 10.9039 41.0857 14.6815 41.0857 18.6309C41.0857 22.5803 40.3131 26.3581 38.6818 29.9641C36.7071 34.4287 32.4142 37.262 27.4345 37.262C22.4548 37.262 18.1619 34.4287 16.1872 29.9641ZM19.1064 8.58569C17.7327 11.7624 17.0458 15.1109 17.0458 18.6309C17.0458 22.1511 17.7327 25.4995 19.1064 28.6762C20.566 32.0246 23.7426 34.0852 27.4345 34.0852C31.1263 34.0852 34.3031 32.0246 35.7626 28.6762C37.1363 25.4995 37.8232 22.1511 37.8232 18.6309C37.8232 15.1109 37.1363 11.7624 35.7626 8.58569C34.3031 5.23727 31.1263 3.17671 27.4345 3.17671C23.7426 3.17671 20.566 5.23727 19.1064 8.58569Z" fill="#39B7E9"/>
<path d="M13.0105 36.5753C10.1772 35.4591 7.68738 33.8279 5.54096 31.6814C3.39454 29.535 1.76326 27.0452 0.647116 24.2119C-0.726595 20.6917 0.131974 16.8282 2.79354 14.1666C5.45511 11.5051 9.31865 10.6465 12.8388 12.0202C15.6721 13.1364 18.1619 14.7676 20.3083 16.9141C22.4548 19.0605 24.0861 21.5503 25.2022 24.3836C26.5759 27.9038 25.7173 31.7673 23.0558 34.4289C21.2528 36.2318 18.8488 37.1763 16.4448 37.1763C15.3287 37.2622 14.1266 37.0046 13.0105 36.5753ZM4.51068 15.8837C2.53597 17.8585 1.84911 20.7776 2.8794 23.4391C3.82383 25.929 5.28339 28.1613 7.2581 30.0501C9.14696 31.9391 11.3792 33.3985 13.8691 34.4289C16.5307 35.4591 19.364 34.8581 21.4245 32.7976C23.3993 30.8228 24.0861 27.9038 23.0558 25.2422C22.1114 22.7523 20.6518 20.5201 18.6771 18.6311C16.7882 16.7423 14.556 15.2827 12.066 14.2525C11.2076 13.909 10.349 13.7374 9.49042 13.7374C7.60153 13.7374 5.88439 14.51 4.51068 15.8837Z" fill="white"/>
<path d="M50.7686 37.262V11.7625H54.2887V21.9795C54.8897 21.1209 55.7483 20.3481 56.7786 19.7472C57.8947 19.1462 59.0108 18.8028 60.127 18.8028C64.2481 18.8028 66.3086 21.2926 66.3086 26.1865V37.1761H62.7886V26.444C62.7886 23.3532 61.5007 21.8936 59.0108 21.9795C58.1523 21.9795 57.2937 22.1512 56.6069 22.5805C55.92 22.9239 55.319 23.4391 54.8897 24.1259C54.4604 24.7269 54.2887 25.4996 54.2887 26.2724V37.1761H50.7686V37.262Z" fill="white"/>
<path d="M76.872 37.6053C74.9832 37.6053 73.3519 37.1759 71.9782 36.4032C70.5186 35.6305 69.4024 34.5144 68.6298 33.1406C67.8571 31.7669 67.4277 30.2216 67.4277 28.4185C67.4277 26.5297 67.8571 24.8126 68.6298 23.4389C69.4024 21.9793 70.5186 20.8631 71.8923 20.0904C73.2661 19.3177 74.8973 18.8884 76.6145 18.8026C78.1598 18.8026 79.5336 19.2318 80.8214 20.0046C82.109 20.7773 83.0538 21.8075 83.7407 23.0954C84.4276 24.3832 84.7706 25.9287 84.7706 27.56V29.1054H70.9479C71.1196 30.7367 71.8065 32.0245 72.9226 32.9689C74.0387 33.9134 75.4983 34.4285 77.2155 34.4285C78.074 34.4285 78.9326 34.2568 79.7053 33.9992C80.478 33.7416 81.3366 33.1406 82.195 32.3679L83.9977 34.8578C83.1398 35.7163 82.109 36.3174 80.7356 36.8325C79.5335 37.3477 78.1598 37.6053 76.872 37.6053ZM76.6145 22.0651C73.5236 22.0651 71.6347 23.4389 71.1196 26.2721H81.2507V26.0146C81.1649 25.2418 80.9073 24.555 80.478 23.954C80.0488 23.353 79.5336 22.9236 78.8467 22.5803C78.074 22.2368 77.3872 22.0651 76.6145 22.0651Z" fill="white"/>
<path d="M86.8916 37.262V11.7625H90.4121V37.1761H86.8916V37.262Z" fill="white"/>
<path d="M92.6465 44.8172V19.146H96.2529V21.7217C96.7679 20.9489 97.6267 20.2621 98.7426 19.6611C99.8584 19.0601 100.975 18.8026 102.091 18.8026C103.723 18.8026 105.182 19.2318 106.384 20.0046C107.672 20.7773 108.616 21.8934 109.389 23.2671C110.162 24.6408 110.505 26.2721 110.505 28.0751C110.505 29.8781 110.162 31.4235 109.389 32.8831C108.616 34.3426 107.672 35.373 106.384 36.2316C105.096 37.0042 103.723 37.4335 102.091 37.4335C100.889 37.4335 99.7734 37.1759 98.7426 36.6608C97.6267 36.1457 96.7679 35.5447 96.1669 34.772V44.7314H92.6465V44.8172ZM101.576 34.2568C102.606 34.2568 103.551 33.9992 104.41 33.4841C105.268 32.9689 105.869 32.1963 106.384 31.3377C106.899 30.3932 107.07 29.363 107.07 28.2468C107.07 27.1307 106.813 26.0146 106.384 25.156C105.954 24.2115 105.268 23.5247 104.41 23.0095C103.551 22.4944 102.606 22.2368 101.576 22.2368C100.46 22.2368 99.5154 22.4944 98.7426 23.0095C97.8837 23.5247 97.2828 24.2115 96.7679 25.156C96.2529 26.1004 96.081 27.1307 96.081 28.2468C96.081 29.363 96.3389 30.4791 96.7679 31.3377C97.2828 32.2821 97.8837 32.9689 98.7426 33.4841C99.6014 33.9992 100.545 34.2568 101.576 34.2568Z" fill="white"/>
<path d="M112.539 44.8172V19.146H116.145V21.7217C116.66 20.9489 117.519 20.2621 118.635 19.6611C119.752 19.0601 120.868 18.8026 121.984 18.8026C123.615 18.8026 125.074 19.2318 126.277 20.0046C127.565 20.7773 128.509 21.8934 129.282 23.2671C130.054 24.6408 130.397 26.2721 130.397 28.0751C130.397 29.8781 130.054 31.4235 129.282 32.8831C128.509 34.3426 127.565 35.373 126.277 36.2316C124.989 37.0042 123.615 37.4335 121.984 37.4335C120.782 37.4335 119.666 37.1759 118.635 36.6608C117.519 36.1457 116.66 35.5447 116.06 34.772V44.7314H112.539V44.8172ZM121.469 34.2568C122.499 34.2568 123.443 33.9992 124.302 33.4841C125.16 32.9689 125.761 32.1963 126.277 31.3377C126.792 30.3932 126.964 29.363 126.964 28.2468C126.964 27.1307 126.706 26.0146 126.277 25.156C125.847 24.2115 125.16 23.5247 124.302 23.0095C123.443 22.4944 122.499 22.2368 121.469 22.2368C120.353 22.2368 119.408 22.4944 118.635 23.0095C117.777 23.5247 117.175 24.2115 116.66 25.156C116.145 26.1004 115.974 27.1307 115.974 28.2468C115.974 29.363 116.231 30.4791 116.66 31.3377C117.175 32.2821 117.777 32.9689 118.635 33.4841C119.408 33.9992 120.353 34.2568 121.469 34.2568Z" fill="white"/>
<path d="M141.417 37.6052C139.614 37.6052 138.069 37.1759 136.695 36.4032C135.322 35.6305 134.205 34.5143 133.432 33.0548C132.66 31.6811 132.23 30.0498 132.23 28.2468C132.23 26.4437 132.66 24.8125 133.432 23.4388C134.205 22.0651 135.322 20.949 136.695 20.0904C138.069 19.3177 139.614 18.8884 141.417 18.8884C143.135 18.8884 144.68 19.3177 146.139 20.0904C147.513 20.8631 148.629 21.9792 149.402 23.4388C150.175 24.8125 150.604 26.4437 150.604 28.2468C150.604 30.0498 150.175 31.6811 149.402 33.0548C148.629 34.4285 147.513 35.5446 146.139 36.4032C144.68 37.1759 143.135 37.6052 141.417 37.6052ZM141.417 34.3427C142.534 34.3427 143.478 34.085 144.337 33.5699C145.195 33.0548 145.882 32.2821 146.311 31.3376C146.826 30.3932 146.998 29.3629 146.998 28.1609C146.998 26.959 146.826 25.9286 146.311 24.9843C145.796 24.0398 145.195 23.3529 144.337 22.8378C143.478 22.3227 142.534 22.0651 141.417 22.0651C140.301 22.0651 139.356 22.3227 138.498 22.8378C137.64 23.3529 136.953 24.1257 136.524 25.0701C136.008 26.0145 135.837 27.0448 135.837 28.2468C135.837 29.4488 136.008 30.479 136.524 31.4235C137.039 32.368 137.64 33.0548 138.498 33.6558C139.356 34.085 140.301 34.3427 141.417 34.3427Z" fill="white"/>
</svg>
