<svg width="355" height="84" viewBox="0 0 355 84" fill="none" xmlns="http://www.w3.org/2000/svg">
<path d="M18.9371 2.26256C5.1099 25.3798 -8.51729 50.3834 17.8998 68.7605C31.2943 78.0785 50.8395 80.9573 67.1106 78.5566C88.5802 75.3889 105.735 65.3097 118.396 47.9007C128.106 34.55 130.204 15.0086 112.288 7.67921C97.0594 1.44944 81.1709 16.792 81.1709 31.766C81.1709 49.7081 93.3918 65.1173 108.139 73.8315C142.577 94.1812 183.426 67.5493 206.1 39.6028C218.347 24.5067 215.622 9.63033 197.456 1.45585C180.492 -6.1779 168.625 18.0543 170.834 31.305C176.758 66.8495 223.102 81.5169 253.466 71.757C273.239 65.4016 286.261 53.6845 298.989 37.0674C308.226 25.0081 309.686 6.72423 292.766 1.34059C273.343 -4.83931 261.679 23.5593 266.72 38.6809C277.988 72.4863 327.613 70.7198 355 70.7198" stroke="#39B7E9" stroke-width="5.43099" stroke-linecap="round"/>
</svg>
